<svg xmlns="http://www.w3.org/2000/svg" viewBox="0 0 760 520" role="img" aria-label="Public project knowledge graph preview">
<rect x="1" y="1" width="758" height="518" rx="12" fill="#0d1117" stroke="#30363d"/>
<text x="380.0" y="34" text-anchor="middle" fill="#f0f6fc" font-family="-apple-system,BlinkMacSystemFont,Segoe UI,Noto Sans JP,sans-serif" font-size="18" font-weight="600">Project Knowledge Graph</text>
<line x1="380.0" y1="270.0" x2="380.0" y2="185.0" stroke="#484f58" stroke-width="1.15" opacity="0.58"/>
<line x1="380.0" y1="185.0" x2="525.0" y2="160.4" stroke="#484f58" stroke-width="1.15" opacity="0.58"/>
<line x1="380.0" y1="185.0" x2="380.0" y2="115.0" stroke="#484f58" stroke-width="1.15" opacity="0.58"/>
<line x1="380.0" y1="185.0" x2="585.0" y2="270.0" stroke="#484f58" stroke-width="1.15" opacity="0.58"/>
<line x1="380.0" y1="185.0" x2="525.0" y2="379.6" stroke="#484f58" stroke-width="1.15" opacity="0.58"/>
<line x1="380.0" y1="185.0" x2="380.0" y2="425.0" stroke="#484f58" stroke-width="1.15" opacity="0.58"/>
<line x1="380.0" y1="185.0" x2="175.0" y2="270.0" stroke="#484f58" stroke-width="1.15" opacity="0.58"/>
<line x1="380.0" y1="270.0" x2="490.0" y2="270.0" stroke="#484f58" stroke-width="1.15" opacity="0.58"/>
<line x1="490.0" y1="270.0" x2="235.0" y2="160.4" stroke="#484f58" stroke-width="1.15" opacity="0.58"/>
<line x1="380.0" y1="270.0" x2="380.0" y2="355.0" stroke="#484f58" stroke-width="1.15" opacity="0.58"/>
<line x1="380.0" y1="355.0" x2="235.0" y2="379.6" stroke="#484f58" stroke-width="1.15" opacity="0.58"/>
<line x1="380.0" y1="270.0" x2="270.0" y2="270.0" stroke="#484f58" stroke-width="1.15" opacity="0.58"/>
<line x1="270.0" y1="270.0" x2="380.0" y2="485.0" stroke="#484f58" stroke-width="1.15" opacity="0.58"/>
<line x1="380.0" y1="270.0" x2="380.0" y2="115.0" stroke="#484f58" stroke-width="1.15" opacity="0.58"/>
<line x1="380.0" y1="270.0" x2="525.0" y2="160.4" stroke="#484f58" stroke-width="1.15" opacity="0.58"/>
<line x1="380.0" y1="270.0" x2="585.0" y2="270.0" stroke="#484f58" stroke-width="1.15" opacity="0.58"/>
<line x1="380.0" y1="270.0" x2="525.0" y2="379.6" stroke="#484f58" stroke-width="1.15" opacity="0.58"/>
<line x1="380.0" y1="270.0" x2="380.0" y2="425.0" stroke="#484f58" stroke-width="1.15" opacity="0.58"/>
<line x1="380.0" y1="270.0" x2="235.0" y2="379.6" stroke="#484f58" stroke-width="1.15" opacity="0.58"/>
<line x1="380.0" y1="270.0" x2="175.0" y2="270.0" stroke="#484f58" stroke-width="1.15" opacity="0.58"/>
<line x1="380.0" y1="270.0" x2="235.0" y2="160.4" stroke="#484f58" stroke-width="1.15" opacity="0.58"/>
<line x1="380.0" y1="270.0" x2="380.0" y2="485.0" stroke="#484f58" stroke-width="1.15" opacity="0.58"/>
<rect x="308.0" y="168.0" width="144" height="34" rx="17.0" fill="#1f6feb" stroke="#30363d"/>
<text x="380.0" y="189.0" text-anchor="middle" fill="#ffffff" font-family="-apple-system,BlinkMacSystemFont,Segoe UI,Noto Sans JP,sans-serif" font-size="11.5" font-weight="600">Minecraft / NeoForge</text>
<rect x="427.0" y="253.0" width="126" height="34" rx="17.0" fill="#1f6feb" stroke="#30363d"/>
<text x="490.0" y="274.0" text-anchor="middle" fill="#ffffff" font-family="-apple-system,BlinkMacSystemFont,Segoe UI,Noto Sans JP,sans-serif" font-size="11.5" font-weight="600">Robotics / ROS 2</text>
<rect x="305.0" y="338.0" width="150" height="34" rx="17.0" fill="#1f6feb" stroke="#30363d"/>
<text x="380.0" y="359.0" text-anchor="middle" fill="#ffffff" font-family="-apple-system,BlinkMacSystemFont,Segoe UI,Noto Sans JP,sans-serif" font-size="11.5" font-weight="600">Coursework / Learning</text>
<rect x="198.0" y="253.0" width="144" height="34" rx="17.0" fill="#1f6feb" stroke="#30363d"/>
<text x="270.0" y="274.0" text-anchor="middle" fill="#ffffff" font-family="-apple-system,BlinkMacSystemFont,Segoe UI,Noto Sans JP,sans-serif" font-size="11.5" font-weight="600">Utilities / Hardware</text>
<rect x="342.0" y="100.0" width="76" height="30" rx="15.0" fill="#21262d" stroke="#30363d"/>
<text x="380.0" y="119.0" text-anchor="middle" fill="#f0f6fc" font-family="-apple-system,BlinkMacSystemFont,Segoe UI,Noto Sans JP,sans-serif" font-size="10.5" font-weight="400">sable</text>
<rect x="474.0" y="145.4" width="102" height="30" rx="15.0" fill="#21262d" stroke="#30363d"/>
<text x="525.0" y="164.4" text-anchor="middle" fill="#f0f6fc" font-family="-apple-system,BlinkMacSystemFont,Segoe UI,Noto Sans JP,sans-serif" font-size="10.5" font-weight="400">OffHandCombat</text>
<rect x="531.0" y="255.0" width="108" height="30" rx="15.0" fill="#161b22" stroke="#30363d"/>
<text x="585.0" y="274.0" text-anchor="middle" fill="#f0f6fc" font-family="-apple-system,BlinkMacSystemFont,Segoe UI,Noto Sans JP,sans-serif" font-size="10.5" font-weight="400">AntiFullbright</text>
<rect x="487.0" y="364.6" width="76" height="30" rx="15.0" fill="#21262d" stroke="#30363d"/>
<text x="525.0" y="383.6" text-anchor="middle" fill="#f0f6fc" font-family="-apple-system,BlinkMacSystemFont,Segoe UI,Noto Sans JP,sans-serif" font-size="10.5" font-weight="400">workers</text>
<rect x="342.0" y="410.0" width="76" height="30" rx="15.0" fill="#21262d" stroke="#30363d"/>
<text x="380.0" y="429.0" text-anchor="middle" fill="#f0f6fc" font-family="-apple-system,BlinkMacSystemFont,Segoe UI,Noto Sans JP,sans-serif" font-size="10.5" font-weight="400">recruits</text>
<rect x="178.0" y="364.6" width="114" height="30" rx="15.0" fill="#161b22" stroke="#30363d"/>
<text x="235.0" y="383.6" text-anchor="middle" fill="#f0f6fc" font-family="-apple-system,BlinkMacSystemFont,Segoe UI,Noto Sans JP,sans-serif" font-size="10.5" font-weight="400">ProjExD_Group10</text>
<rect x="121.0" y="255.0" width="108" height="30" rx="15.0" fill="#21262d" stroke="#30363d"/>
<text x="175.0" y="274.0" text-anchor="middle" fill="#f0f6fc" font-family="-apple-system,BlinkMacSystemFont,Segoe UI,Noto Sans JP,sans-serif" font-size="10.5" font-weight="400">BuyClaimChunks</text>
<rect x="190.0" y="145.4" width="90" height="30" rx="15.0" fill="#21262d" stroke="#30363d"/>
<text x="235.0" y="164.4" text-anchor="middle" fill="#f0f6fc" font-family="-apple-system,BlinkMacSystemFont,Segoe UI,Noto Sans JP,sans-serif" font-size="10.5" font-weight="400">lime_tidyup</text>
<rect x="305.0" y="470.0" width="150" height="30" rx="15.0" fill="#21262d" stroke="#30363d"/>
<text x="380.0" y="489.0" text-anchor="middle" fill="#f0f6fc" font-family="-apple-system,BlinkMacSystemFont,Segoe UI,Noto Sans JP,sans-serif" font-size="10.5" font-weight="400">turing-smart-screen-python-owl</text>
<circle cx="380.0" cy="270" r="50" fill="#58a6ff"/>
<text x="380.0" y="275" text-anchor="middle" fill="#ffffff" font-family="-apple-system,BlinkMacSystemFont,Segoe UI,Noto Sans JP,sans-serif" font-size="15" font-weight="700">nekomario28</text>
<text x="380.0" y="502" text-anchor="middle" fill="#8b949e" font-family="-apple-system,BlinkMacSystemFont,Segoe UI,Noto Sans JP,sans-serif" font-size="11">9 public projects • 4 curated group • click to explore</text>
</svg>
